<svg xmlns="http://www.w3.org/2000/svg" viewBox="0 0 989.59 858.36"><title>Artboard 1</title><g style="isolation:isolate"><circle cx="494.61" cy="192.48" r="192.48" style="fill:#7cc8c0;opacity:0.7000000000000001"/><circle cx="625.23" cy="417.66" r="192.48" style="fill:#175f77;opacity:0.7000000000000001"/><circle cx="364.35" cy="417.91" r="192.48" style="fill:#333;opacity:0.7000000000000001"/><circle cx="364.5" cy="418.05" r="97.76" style="fill:#fff"/><circle cx="494.61" cy="192.48" r="97.76" style="fill:#fff"/><circle cx="625.23" cy="417.38" r="97.76" style="fill:#fff"/><g style="opacity:0.7000000000000001"><path d="M551,187.79H541.4a48.09,48.09,0,0,0-3-11.33l8.32-4.78a6.48,6.48,0,0,0-6.49-11.21l-8.3,4.81a48.53,48.53,0,0,0-8.29-8.3l4.78-8.31a6.46,6.46,0,1,0-11.18-6.48l-4.79,8.34a46.18,46.18,0,0,0-11.32-3v-9.62a6.46,6.46,0,0,0-12.92,0v9.62a46.13,46.13,0,0,0-11.34,3l-4.8-8.31a6.46,6.46,0,1,0-11.18,6.46l4.78,8.31a48.94,48.94,0,0,0-8.29,8.3L449,160.47a6.47,6.47,0,0,0-6.46,11.21l8.32,4.78a47.27,47.27,0,0,0-3,11.33h-9.62a6.47,6.47,0,0,0,0,12.93h9.62a47.13,47.13,0,0,0,3,11.33l-8.32,4.79A6.47,6.47,0,0,0,449,228l8.31-4.82a48.81,48.81,0,0,0,8.29,8.31l-4.78,8.31A6.45,6.45,0,0,0,472,246.29l4.8-8.3a46.27,46.27,0,0,0,11.34,3v9.61a6.46,6.46,0,1,0,12.92,0V241a46.32,46.32,0,0,0,11.32-3l4.79,8.33a6.46,6.46,0,0,0,11.18-6.47l-4.78-8.31a48,48,0,0,0,8.29-8.31l8.3,4.82a6.48,6.48,0,0,0,6.49-11.21l-8.32-4.79a47.94,47.94,0,0,0,3-11.33H551a6.47,6.47,0,0,0,0-12.93Z" style="fill:#7cc8c0"/><path d="M480.7,168.71a7,7,0,1,1,6.94,6.94A7,7,0,0,1,480.7,168.71Z" style="fill:#fff"/><path d="M502.07,181.63a9.44,9.44,0,1,1,9.44,9.43A9.43,9.43,0,0,1,502.07,181.63Z" style="fill:#fff"/><path d="M475.73,206.34a13.91,13.91,0,1,1,13.92,13.92A13.92,13.92,0,0,1,475.73,206.34Z" style="fill:#fff"/></g><g style="opacity:0.7000000000000001"><path d="M637.47,362.32a44.13,44.13,0,0,0-36.73,68.58l-28.88,28.88a9.08,9.08,0,0,0,12.83,12.84l29-29a44.12,44.12,0,1,0,23.79-81.29Z" style="fill:#175f77"/><path d="M606.14,406.42a31.32,31.32,0,1,1,31.33,31.33A31.31,31.31,0,0,1,606.14,406.42Z" style="fill:#fff"/><path d="M655.23,410.09a4.39,4.39,0,0,1-4.39-4.37A12.69,12.69,0,0,0,638.16,393a4.37,4.37,0,0,1,0-8.74,21.47,21.47,0,0,1,21.46,21.44,4.37,4.37,0,0,1-4.38,4.37Z" style="fill:#175f77"/></g><g style="opacity:0.7000000000000001"><path d="M411.8,364.69H317.25a6.51,6.51,0,0,0-6.53,6.53v74.91a6.51,6.51,0,0,0,6.53,6.51h36.23v8.68H331.75a5.43,5.43,0,1,0,0,10.86h65.52a5.43,5.43,0,1,0,0-10.86H375.53v-8.68H411.8a6.51,6.51,0,0,0,6.51-6.51V371.22A6.51,6.51,0,0,0,411.8,364.69Z" style="fill:#333;mix-blend-mode:multiply"/><path d="M323.61,382.62a6.51,6.51,0,0,1,6.52-6.51H398.9a6.51,6.51,0,0,1,6.53,6.51v34a6.53,6.53,0,0,1-6.53,6.53H330.13a6.53,6.53,0,0,1-6.52-6.53Z" style="fill:#fff"/><path d="M358.47,435.47a6,6,0,1,1,6.05,6A6.05,6.05,0,0,1,358.47,435.47Z" style="fill:#fff"/></g><path d="M32.09,710V757.7H92.22v24.6H32.09v48.61h76.3v25.55H0V684.62H108.38V710Z" style="fill:#195f78"/><path d="M197.28,684.62q17.23,0,29.83,4a57.47,57.47,0,0,1,20.8,11.29,44.8,44.8,0,0,1,12.18,17.35,59.8,59.8,0,0,1,4,22.1,61.07,61.07,0,0,1-4.16,22.88,47.47,47.47,0,0,1-12.48,17.89,58,58,0,0,1-20.86,11.65Q214,796,197.28,796H173.39v60.49h-32V684.62Zm0,86.4a48.13,48.13,0,0,0,15.33-2.2,29.06,29.06,0,0,0,10.87-6.3,25.51,25.51,0,0,0,6.48-10,38.21,38.21,0,0,0,2.14-13.13A34.67,34.67,0,0,0,230,726.93a24.68,24.68,0,0,0-6.42-9.51,28.56,28.56,0,0,0-10.81-6,51.19,51.19,0,0,0-15.45-2.08H173.39V771Z" style="fill:#195f78"/><path d="M325.38,856.46H293.3V684.62h32.09Z" style="fill:#195f78"/><path d="M486.53,815.94a6.38,6.38,0,0,1,4.63,2l12.6,13.67A69.18,69.18,0,0,1,478,851.47q-15.27,6.89-36.66,6.89-19.14,0-34.4-6.54a75.77,75.77,0,0,1-26.09-18.18,79.56,79.56,0,0,1-16.58-27.81,104.34,104.34,0,0,1-5.76-35.3,98.26,98.26,0,0,1,6.18-35.47,81.54,81.54,0,0,1,17.41-27.75,78.81,78.81,0,0,1,26.8-18.12,88.9,88.9,0,0,1,34.46-6.48q18.78,0,33.34,6.18a79.46,79.46,0,0,1,24.78,16.16l-10.7,14.86a9.73,9.73,0,0,1-2.44,2.5,6.92,6.92,0,0,1-4.1,1.07,7.82,7.82,0,0,1-3.68-1q-1.9-1-4.16-2.5t-5.23-3.27a43.16,43.16,0,0,0-6.89-3.27,56.45,56.45,0,0,0-9.09-2.5,62.93,62.93,0,0,0-11.94-1,53,53,0,0,0-21.09,4.1,45.83,45.83,0,0,0-16.46,11.88,54.77,54.77,0,0,0-10.7,19,79.64,79.64,0,0,0-3.8,25.61,75.24,75.24,0,0,0,4.1,25.79,56.65,56.65,0,0,0,11.11,19A47.41,47.41,0,0,0,423,827.17a51.05,51.05,0,0,0,20.44,4.1,89.08,89.08,0,0,0,11.82-.71A50.21,50.21,0,0,0,465,828.3a43.16,43.16,0,0,0,8.44-4,52.66,52.66,0,0,0,7.9-6,11.23,11.23,0,0,1,2.5-1.72A6.05,6.05,0,0,1,486.53,815.94Z" style="fill:#195f78"/><path d="M690.7,770.54a96.05,96.05,0,0,1-6.24,35,82.16,82.16,0,0,1-17.65,27.87,80.18,80.18,0,0,1-27.45,18.36,99.33,99.33,0,0,1-71.19,0,80.8,80.8,0,0,1-27.51-18.36,82.41,82.41,0,0,1-17.77-27.87,100.39,100.39,0,0,1,0-70,82.43,82.43,0,0,1,17.77-27.87,80.81,80.81,0,0,1,27.51-18.36,92.6,92.6,0,0,1,35.53-6.6,96.44,96.44,0,0,1,24.6,3,86.38,86.38,0,0,1,21.15,8.56,78.2,78.2,0,0,1,17.29,13.43,81.65,81.65,0,0,1,13,17.65,86.53,86.53,0,0,1,8.14,21.15A100.72,100.72,0,0,1,690.7,770.54Zm-32.68,0a78.89,78.89,0,0,0-3.8-25.37,54.41,54.41,0,0,0-10.81-19.07,46.33,46.33,0,0,0-17.05-12,63.69,63.69,0,0,0-45.28,0,46.84,46.84,0,0,0-17.11,12,53.87,53.87,0,0,0-10.87,19.07,86.54,86.54,0,0,0,0,50.74,53.24,53.24,0,0,0,10.87,19,47.15,47.15,0,0,0,17.11,11.94,63.69,63.69,0,0,0,45.28,0,46.64,46.64,0,0,0,17.05-11.94,53.76,53.76,0,0,0,10.81-19A78.88,78.88,0,0,0,658,770.54Z" style="fill:#195f78"/><path d="M857.8,856.46H828.92q-8.2,0-11.88-6.42L780.9,795a12.71,12.71,0,0,0-4.46-4.4,15.62,15.62,0,0,0-7.19-1.31H755.59v67.15h-32V684.62H776q17.47,0,30,3.63T826.6,698.4A39.77,39.77,0,0,1,838.42,714a54.3,54.3,0,0,1,1.25,36.42,47.47,47.47,0,0,1-7.37,14,49.63,49.63,0,0,1-11.88,11.05,59.59,59.59,0,0,1-16.1,7.49,31.34,31.34,0,0,1,5.7,4.22,30.08,30.08,0,0,1,4.75,5.76Zm-82.24-90.08a49.45,49.45,0,0,0,15.75-2.26,30.42,30.42,0,0,0,11.05-6.24,25,25,0,0,0,6.48-9.45,32.66,32.66,0,0,0,2.14-12q0-13.07-8.62-20.08t-26.32-7H755.59v57Z" style="fill:#195f78"/><path d="M913.29,710V757.7h60.13v24.6H913.29v48.61h76.3v25.55H881.2V684.62H989.59V710Z" style="fill:#195f78"/></g></svg>