<?xml version="1.0" encoding="utf-8"?>
<!-- Generator: Adobe Illustrator 19.1.0, SVG Export Plug-In . SVG Version: 6.00 Build 0)  -->
<svg version="1.1" id="Layer_1" xmlns="http://www.w3.org/2000/svg" xmlns:xlink="http://www.w3.org/1999/xlink" x="0px" y="0px"
	 viewBox="-255 347 100 100" style="enable-background:new -255 347 100 100;" xml:space="preserve">
<style type="text/css">
	.st0{fill:#7BC9C1;}
	.st1{fill:#1B6078;}
</style>
<polygon class="st0" points="-244.1,374 -217.1,347 -217.1,374 "/>
<g>
	<path class="st1" d="M-200,408.1l11.2,10.8c1,0.9,2.2,1.4,3.5,1.4c1.3,0,2.6-0.5,3.6-1.5c1.9-2,1.9-5.2-0.1-7.1l-19.7-19.1
		c-1.9-1.9-5-1.9-7,0l-19.7,19.1c-2,1.9-2,5.1-0.1,7.1c1.9,2,5.1,2,7.1,0.1l11.1-10.8V447h-29.2c-2.7,0-4.9-2.2-4.9-4.9v-58h32.1
		c2.7,0,4.9-2.2,4.9-4.9V347h36.3c2.7,0,4.9,2.2,4.9,4.9v90.1c0,2.7-2.2,4.9-4.9,4.9H-200V408.1z"/>
</g>
</svg>
