<?xml version="1.0" encoding="utf-8"?>
<!-- Generator: Adobe Illustrator 19.1.0, SVG Export Plug-In . SVG Version: 6.00 Build 0)  -->
<svg version="1.1" id="Layer_1" xmlns="http://www.w3.org/2000/svg" xmlns:xlink="http://www.w3.org/1999/xlink" x="0px" y="0px"
	 viewBox="-255 347 100 100" style="enable-background:new -255 347 100 100;" xml:space="preserve">
<style type="text/css">
	.st0{fill:#1B6078;}
	.st1{fill:#7BC9C1;}
</style>
<path class="st0" d="M-179.3,426.4L-179.3,426.4c0,0,0.1,5.3-0.7,7.4c0,0-13,8.4-34.7,8.4l0-0.5l0,0.5c-21.7,0-34.7-8.4-34.7-8.4
	c-0.9-2.1-0.8-7.4-0.8-7.4c-0.3-3.8,0.1-11.5,6.7-13.1c8.9-2.3,16.3-5.7,16.3-5.7c1.5-2,1.7-6.2,1.7-6.2c-2.8-3-4-6.8-4.5-9.9
	c-0.2,0.1-0.4,0.2-0.6,0.2c-0.8,0-2-1.2-3.2-5.9c-1.5-5.8-0.1-7,1.3-7c0.3,0,0.4,0,0.6,0.1l0-0.1c0,0-4.1-13.7,5.8-19.7
	c0,0-1.7-1.4-1.6-3.4c0,0,4.5,0.5,8.9,0.5c2,0,3.9-0.1,5.3-0.4c0.6-0.1,1.2-0.2,1.7-0.2c4.1,0.1,8,3.3,8.7,6.3c0,0,0.1,0,0.2,0
	c1.3,0,9.4,0.6,5.5,16.9c0,0,0,0,0,0.1c0.2,0,0.4-0.1,0.6-0.1c1.4,0,2.8,1.1,1.3,7c-1.2,4.7-2.4,5.9-3.2,5.9c-0.3,0-0.5-0.1-0.7-0.3
	c-0.5,3.2-1.7,7-4.6,10l0.2,0c0,0,0.2,3.7,1.5,5.8c0.1,0,7.7,3.8,16.6,6.1C-179.4,414.9-179.1,422.6-179.3,426.4z M-163.4,397.1
	c-3.6-1.7-5.4-2-5.6-2.1c-0.1-0.1-6.1-1.6-8.9-3.1c-0.7-0.4-1.1-0.7-1.1-0.7v-0.4h0v-2.6c0,0,8.1,0.2,12-3.7c0,0-5.6-1.6-4.6-11.8
	c0.9-10.4-1.3-19.4-9.5-18.4c0,0-3.6-4.3-10.6-1.6c-1.5,0.6-4.5,1.7-6.6,5.7c1.2,0.6,2.4,1.5,3.4,2.8c1.5,1.9,2.5,4.4,2.8,7.4
	c0.2,2.1,0.1,4.6-0.3,7.3c0.1,0.1,0.3,0.3,0.4,0.5c2.3,2.9,1.6,7.1,0.7,10.4c-0.7,2.6-1.4,4.6-2.3,5.9c-0.7,1.2-1.5,1.9-2.3,2.5
	c-0.8,2.7-1.9,5.2-3.5,7.3c0.1,0.4,0.2,0.8,0.3,1.2c2.6,1.2,8.1,3.5,14.1,5c2.4,0.6,4.5,1.8,6.1,3.5c0.8,0.9,1.5,1.8,2.1,2.9
	c6.1-0.9,13.7-2.8,17.1-6.7v-6C-159.6,402.5-159.8,398.8-163.4,397.1z"/>
<path class="st1" d="M-163.4,397.1c-3.6-1.7-5.4-2-5.6-2.1c-0.1-0.1-6.1-1.6-8.9-3.1c-0.7-0.4-1.1-0.7-1.1-0.7v-0.4h0v-2.6
	c0,0,8.1,0.2,12-3.7c0,0-5.6-1.6-4.6-11.8c1-10.2-1.3-19.2-9.5-18.4c0,0-3.6-4.3-10.6-1.6c-1.5,0.6-4.5,1.7-6.6,5.7
	c1.2,0.6,2.4,1.5,3.4,2.8c1.5,1.9,2.5,4.4,2.8,7.4c0.2,2.1,0.1,4.6-0.3,7.3c0.1,0.1,0.3,0.3,0.4,0.5c2.3,2.9,1.6,7.1,0.7,10.4
	c-0.7,2.6-1.4,4.6-2.3,5.9c-0.7,1.2-1.5,1.9-2.3,2.5c-0.8,2.7-1.9,5.2-3.5,7.3c0.1,0.4,0.2,0.8,0.3,1.2c2.6,1.2,8.1,3.5,14.1,5
	c2.4,0.6,4.5,1.8,6.1,3.5c0.8,0.9,1.5,1.8,2.1,2.9c6.1-0.9,13.7-2.8,17.1-6.7v-6C-159.6,402.5-159.8,398.8-163.4,397.1z"/>
</svg>
