<?xml version="1.0" encoding="utf-8"?>
<!-- Generator: Adobe Illustrator 19.1.0, SVG Export Plug-In . SVG Version: 6.00 Build 0)  -->
<svg version="1.1" id="Layer_1" xmlns="http://www.w3.org/2000/svg" xmlns:xlink="http://www.w3.org/1999/xlink" x="0px" y="0px"
	 viewBox="-855 1083 72 72" style="enable-background:new -855 1083 72 72;" xml:space="preserve">
<style type="text/css">
	.st0{fill:none;}
	.st1{fill:#7BC9C1;}
	.st2{fill:#1B6078;}
</style>
<path class="st0" d="M-855,1083h72v72h-72V1083z"/>
<path class="st1" d="M-808.3,1128c0,0,13.4-14.5,13.4-24.5c0-7.4-6-13.4-13.4-13.4s-13.4,6-13.4,13.4
	C-821.6,1113.5-808.3,1128-808.3,1128z M-808.3,1099c2.5,0,4.5,2,4.5,4.5s-2,4.5-4.5,4.5s-4.5-2-4.5-4.5
	C-812.7,1101-810.7,1099-808.3,1099z"/>
<g>
	<path class="st2" d="M-803,1126.4c0,0.1,0,0.2,0,0.3c0,4.6-1.8,8.9-4.7,12c-0.6-1.8-2.2-3.1-4.2-3.1h-2.2v-6.7c0-1.2-1-2.2-2.2-2.2
		h-13.4v-4.5h4.5c1.2,0,2.2-1,2.2-2.2v-4.5h2.1c-1.9-3.5-3.4-7.3-3.7-10.8c-10.5,1.8-18.6,11-18.6,22c0,12.3,10,22.3,22.3,22.3
		s22.3-10,22.3-22.3c0-1.9-0.2-3.7-0.7-5.4C-800.5,1123.2-801.8,1125-803,1126.4z M-823,1144.4c-8.8-1.1-15.6-8.6-15.6-17.7
		c0-1.4,0.2-2.7,0.5-4l10.7,10.7v2.2c0,2.5,2,4.5,4.5,4.5L-823,1144.4L-823,1144.4z"/>
</g>
</svg>
