<?xml version="1.0" encoding="utf-8"?>
<!-- Generator: Adobe Illustrator 19.1.0, SVG Export Plug-In . SVG Version: 6.00 Build 0)  -->
<svg version="1.1" id="Layer_1" xmlns="http://www.w3.org/2000/svg" xmlns:xlink="http://www.w3.org/1999/xlink" x="0px" y="0px"
	 viewBox="-1124 1444 72 72" style="enable-background:new -1124 1444 72 72;" xml:space="preserve">
<style type="text/css">
	.st0{fill:none;}
	.st1{fill:#3FC8C8;}
	.st2{fill:#195B72;}
</style>
<path class="st0" d="M-1124,1444h72v72h-72V1444z"/>
<path class="st1" d="M-1077.3,1489c0,0,13.4-14.5,13.4-24.5c0-7.4-6-13.4-13.4-13.4c-7.4,0-13.4,6-13.4,13.4
	C-1090.6,1474.5-1077.3,1489-1077.3,1489z M-1077.3,1460c2.5,0,4.5,2,4.5,4.5s-2,4.5-4.5,4.5s-4.5-2-4.5-4.5
	C-1081.7,1462-1079.7,1460-1077.3,1460z"/>
<g>
	<path class="st2" d="M-1072,1487.4c0,0.1,0,0.2,0,0.3c0,4.6-1.8,8.9-4.7,12c-0.6-1.8-2.2-3.1-4.2-3.1h-2.2v-6.7
		c0-1.2-1-2.2-2.2-2.2h-13.4v-4.5h4.5c1.2,0,2.2-1,2.2-2.2v-4.5h2.1c-1.9-3.5-3.4-7.3-3.7-10.8c-10.5,1.8-18.6,11-18.6,22
		c0,12.3,10,22.3,22.3,22.3c12.3,0,22.3-10,22.3-22.3c0-1.9-0.2-3.7-0.7-5.4C-1069.5,1484.2-1070.8,1486-1072,1487.4z M-1092,1505.4
		c-8.8-1.1-15.6-8.6-15.6-17.7c0-1.4,0.2-2.7,0.5-4l10.7,10.7v2.2c0,2.5,2,4.5,4.5,4.5L-1092,1505.4L-1092,1505.4z"/>
</g>
</svg>
